<svg width="18" height="20" viewBox="0 0 18 20" fill="none" xmlns="http://www.w3.org/2000/svg">
<path d="M16.08 10.42L9.89998 16.61C9.08979 17.33 8.03512 17.7132 6.9517 17.6814C5.86828 17.6495 4.83798 17.2048 4.07155 16.4384C3.30512 15.672 2.86049 14.6417 2.82859 13.5582C2.7967 12.4748 3.17996 11.4202 3.89998 10.61L11.9 2.60997C12.3776 2.15627 13.0112 1.9033 13.67 1.9033C14.3287 1.9033 14.9624 2.15627 15.44 2.60997C15.9053 3.08156 16.1662 3.71744 16.1662 4.37997C16.1662 5.0425 15.9053 5.67838 15.44 6.14997L8.53998 13.04C8.47169 13.1135 8.38959 13.1729 8.29835 13.2147C8.20712 13.2565 8.10855 13.2799 8.00826 13.2836C7.90797 13.2874 7.80794 13.2713 7.71386 13.2363C7.61979 13.2014 7.53352 13.1483 7.45998 13.08C7.38644 13.0117 7.32707 12.9296 7.28526 12.8383C7.24345 12.7471 7.22002 12.6485 7.2163 12.5483C7.21259 12.448 7.22866 12.3479 7.26361 12.2539C7.29856 12.1598 7.35169 12.0735 7.41998 12L12.55 6.87997C12.7383 6.69166 12.8441 6.43627 12.8441 6.16997C12.8441 5.90367 12.7383 5.64827 12.55 5.45997C12.3617 5.27166 12.1063 5.16588 11.84 5.16588C11.5737 5.16588 11.3183 5.27166 11.13 5.45997L5.99998 10.6C5.74328 10.8547 5.53954 11.1577 5.40051 11.4915C5.26147 11.8253 5.18989 12.1834 5.18989 12.545C5.18989 12.9066 5.26147 13.2646 5.40051 13.5984C5.53954 13.9323 5.74328 14.2353 5.99998 14.49C6.52435 14.9895 7.22078 15.2681 7.94498 15.2681C8.66917 15.2681 9.3656 14.9895 9.88998 14.49L16.78 7.58997C17.5749 6.73692 18.0076 5.60864 17.987 4.44283C17.9665 3.27703 17.4942 2.16472 16.6697 1.34024C15.8452 0.515759 14.7329 0.0434872 13.5671 0.0229179C12.4013 0.00234858 11.273 0.435088 10.42 1.22997L2.41998 9.22997C1.34118 10.4248 0.765005 11.9898 0.81151 13.5989C0.858015 15.2081 1.52361 16.7372 2.66962 17.8677C3.81562 18.9983 5.35365 19.643 6.96326 19.6677C8.57287 19.6923 10.1299 19.0949 11.31 18L17.5 11.82C17.5932 11.7267 17.6672 11.616 17.7176 11.4942C17.7681 11.3724 17.7941 11.2418 17.7941 11.11C17.7941 10.9781 17.7681 10.8475 17.7176 10.7257C17.6672 10.6039 17.5932 10.4932 17.5 10.4C17.4067 10.3067 17.296 10.2328 17.1742 10.1823C17.0524 10.1318 16.9218 10.1059 16.79 10.1059C16.6581 10.1059 16.5275 10.1318 16.4057 10.1823C16.2839 10.2328 16.1732 10.3067 16.08 10.4V10.42Z" fill="#A0A0A0"/>
</svg>
